<?xml version="1.0" ?><svg viewBox="0 0 40 40" xmlns="http://www.w3.org/2000/svg"><defs><style>.cls-1{fill-rule:evenodd;}</style></defs><title/><g id="GitHub"><path class="cls-1" d="M20,8a12,12,0,0,0-3.79,23.39c.6.11.82-.26.82-.58s0-1,0-2c-3.34.72-4-1.61-4-1.61a3.21,3.21,0,0,0-1.33-1.76c-1.09-.74.08-.73.08-.73a2.55,2.55,0,0,1,1.84,1.24,2.56,2.56,0,0,0,3.49,1,2.59,2.59,0,0,1,.76-1.61c-2.66-.3-5.47-1.33-5.47-5.93a4.63,4.63,0,0,1,1.24-3.22A4.28,4.28,0,0,1,13.7,13s1-.33,3.3,1.23a11.18,11.18,0,0,1,6,0C25.3,12.65,26.3,13,26.3,13a4.28,4.28,0,0,1,.12,3.17,4.63,4.63,0,0,1,1.23,3.22c0,4.61-2.8,5.63-5.47,5.92A2.88,2.88,0,0,1,23,27.52c0,1.6,0,2.89,0,3.29s.21.69.82.58A12,12,0,0,0,20,8Z"/></g></svg>